<svg width="130" height="29" viewBox="0 0 130 29" fill="none" xmlns="http://www.w3.org/2000/svg">
<path d="M14.66 9.36964H20.7478L21.3499 6.82747C21.3499 6.82747 22.1527 3.3487 19.6105 1.67622C19.6105 1.67622 17.8712 0.00373199 13.2551 0.00373199C13.2551 0.00373199 7.97004 -0.196966 5.42787 2.34521C5.42787 2.34521 2.3505 5.08808 2.95259 10.0386C2.95259 10.0386 3.35399 12.3801 5.69547 14.1195L11.0474 17.7321C11.0474 17.7321 13.0544 19.1369 11.9171 21.8129C11.9171 21.8129 11.5157 23.6861 8.83974 23.4854C8.83974 23.4854 6.16376 23.6192 6.09686 21.2108C6.09686 21.2108 6.23066 19.6052 6.63206 18.6687H0.678012C0.678012 18.6687 -2.13176 26.429 3.68848 28.2353C3.68848 28.2353 11.984 30.4429 16.1987 26.429C16.1987 26.429 20.0788 22.415 18.4063 16.7286C18.4063 16.7286 17.938 15.1899 16.0649 13.9857L10.0439 9.90484C10.0439 9.90484 8.37144 8.49995 9.77633 6.42607C9.77633 6.42607 10.2446 5.28878 12.653 5.35568C12.653 5.35568 15.4628 5.28878 14.9945 7.69716L14.66 9.36964ZM24.3604 0.538927H30.582L28.8426 8.29925C28.8426 8.29925 32.1207 7.56336 34.4622 8.23235C34.4622 8.23235 38.0079 8.76755 37.0044 13.3836L33.7932 27.9008H27.5716L30.5151 14.7885C30.5151 14.7885 31.0503 12.9153 29.3778 12.9153C29.3778 12.9153 28.3075 12.9153 27.8392 13.116L24.5611 27.9008H18.3394L24.3604 0.538927ZM46.7048 5.62328L47.8421 0.538927H41.6204L40.4831 5.62328H46.7048ZM41.7542 27.9677L46.1696 8.03165H39.9479L35.4657 27.9677H41.7542ZM43.4267 27.9677L47.8421 8.09855H58.8136C58.8136 8.09855 62.3592 8.29925 61.9578 11.6442L51.187 12.3801L61.4226 13.2498L50.7856 13.9188L61.0212 14.7885L50.3842 15.5244L52.3912 15.9258L49.7153 27.9008H43.4267V27.9677Z" fill="#034EA2"/>
<path d="M54.9313 16.1265L61.0861 16.461L59.0122 27.9008H52.3223L54.9313 16.1265ZM62.4241 10.6407L64.0966 0.538945H65.3007L62.4241 10.6407ZM63.8959 10.6407L65.5683 0.472046H66.7725L63.8959 10.6407ZM65.3676 10.6407L67.0401 0.538945H68.2443L65.3676 10.6407ZM66.8394 10.6407L68.5119 0.538945H69.7161L66.8394 10.6407ZM68.3112 10.6407L69.9837 0.538945H71.1879L68.3112 10.6407Z" fill="#034EA2"/>
<path d="M66.5791 17.8659L64.9067 27.9677H63.7025L66.5791 17.8659ZM65.1074 17.8659L63.4349 27.9677H62.2307L65.1074 17.8659ZM63.6356 17.8659L61.9631 27.9677H60.7589L63.6356 17.8659ZM62.1638 17.8659L60.4913 27.9677H59.2871L62.1638 17.8659ZM71.4628 0.472046H86.6489L85.5786 5.2219H76.614L75.2092 11.3766H82.0329L80.8956 16.3941H74.0719L72.667 22.7495H81.6315L80.4942 27.9008H65.3081L68.4523 16.3941L79.7583 15.5244L69.5227 14.7216L79.8921 13.8519L70.0579 13.116L80.2935 12.2463L69.5896 11.4435L71.4628 0.472046ZM87.6524 0.472046H93.6734L92.0009 7.83098H97.219L96.0818 12.8484H90.9974L88.9904 21.6791C88.9904 21.6791 88.4552 23.2178 90.2615 23.2178H93.6734L92.7368 27.4994C92.7368 27.4994 90.0608 28.7036 86.7827 27.9677C86.7827 27.9677 81.5646 27.4994 83.0364 21.5453L87.6524 0.472046ZM106.853 14.1864H112.138C112.138 14.1864 113.609 10.2394 110.264 8.49997C110.264 8.49997 108.257 7.29578 104.578 7.49648C104.578 7.49648 101.501 7.49648 99.5605 8.76757C99.5605 8.76757 96.1487 10.7076 97.0852 15.3906C97.0852 15.3906 97.6204 16.9962 98.8915 17.7321L103.842 20.7426C103.842 20.7426 104.779 21.6791 104.31 22.6826C104.31 22.6826 104.177 23.753 102.303 23.753C102.303 23.753 100.363 24.0206 100.363 22.2812C100.363 22.2812 100.363 21.5453 100.497 20.5419H95.0783C95.0783 20.5419 93.8741 23.9537 95.1452 25.6931C95.1452 25.6931 96.2824 28.1684 101.902 28.1684C101.902 28.1684 107.923 28.7036 109.662 24.9572C109.662 24.9572 111.669 21.2108 109.529 18.6018C109.529 18.6018 108.525 17.5314 107.187 16.8624L103.842 15.0561C103.842 15.0561 102.37 14.3871 102.705 12.9822C102.705 12.9822 102.772 11.7111 104.846 11.6442C104.846 11.7111 107.321 11.5104 106.853 14.1864ZM114.613 7.83098H120.835L117.757 21.4115C117.757 21.4115 117.49 22.9502 118.493 22.9502H120.366L123.778 7.76408H130L125.651 27.4325L118.493 28.1015C118.493 28.1015 114.211 28.3691 112.673 26.429C112.673 26.429 110.666 25.0241 111.669 20.3412L114.613 7.83098Z" fill="#00929E"/>
</svg>
