<svg width="130" height="53" viewBox="0 0 130 53" fill="none" xmlns="http://www.w3.org/2000/svg">
<path fill-rule="evenodd" clip-rule="evenodd" d="M22.6864 31.3152H22.7396L19.4377 24.658L17.627 28.2263C19.5975 29.9305 21.568 31.421 23.378 32.7524L22.6864 31.3152ZM47.7173 28.5991C47.9303 28.386 48.0368 28.0658 48.0368 27.5872V25.5634C48.0368 25.1374 47.9303 24.7646 47.7173 24.6048C47.5042 24.3918 47.0782 24.3385 46.4391 24.3385H38.4505V28.8654H46.4391C47.0782 28.8654 47.5042 28.7588 47.7173 28.5991Z" fill="#33A457"/>
<path fill-rule="evenodd" clip-rule="evenodd" d="M130 29.398C130 19.9714 100.922 12.3549 65.0263 12.3549C54.7476 12.3549 45.0548 12.994 36.4272 14.1124C44.3625 17.1481 50.3805 20.3435 50.3805 20.3435C50.3805 20.3435 43.9364 17.0948 35.7881 14.1657C25.1366 15.6036 16.1894 17.7339 9.90509 20.3435C11.3963 22.3673 13.3136 24.3378 15.3373 26.255L17.8937 21.4619H21.3021L30.0363 37.8651H26.0428L25.7765 37.2793C25.7765 37.2793 21.1964 34.6164 16.3499 30.7819C15.1435 33.1089 13.909 35.4848 12.7817 37.8651H9.21349L14.0066 28.8646C11.397 26.6818 8.89395 24.2313 6.87017 21.7814C2.50309 24.0715 0 26.6278 0 29.3972C0 38.7705 29.1317 46.3862 65.027 46.3862C73.3351 46.3862 81.3237 45.9602 88.6199 45.2146C80.3651 41.9652 74.2405 38.7705 74.2405 38.7705C74.2405 38.7705 80.7379 42.0192 89.2597 45.1613C101.083 43.9364 111.255 41.8061 118.445 39.09C115.569 35.7348 111.68 32.3796 107.952 29.5037L100.817 37.8651H96.6625L105.45 27.6405C100.497 24.019 96.3962 21.6217 96.3962 21.6217L101.349 21.6749C101.349 21.6749 103.799 23.1661 107.261 25.5627L110.722 21.4619H114.823L109.817 27.3734C113.758 30.2493 118.285 33.9233 121.693 37.7053C127.018 35.2562 130 32.4336 130 29.398ZM47.984 37.8658L41.8061 31.688H38.4509V37.8658H34.936V21.4626H48.0372C49.2621 21.4626 50.1143 21.7289 50.6468 22.2615C51.1794 22.7408 51.4457 23.5397 51.4457 24.6581V28.4926C51.4457 29.611 51.1794 30.4098 50.6468 30.9424C50.1143 31.421 49.2621 31.688 48.0372 31.688H46.0134L53.0966 37.8658H47.984ZM72.2692 24.3918H65.2393V37.8658H61.6711V24.3918H54.6944V21.4626H72.2692V24.3918ZM92.4004 37.8658H76.6363V21.4626H92.2407V24.2853H80.1506V27.9068H87.2337V30.7294H80.1506V34.7769H92.4004V37.8658Z" fill="#41A758"/>
<path fill-rule="evenodd" clip-rule="evenodd" d="M120.254 41.4341C123.022 45.4284 123.289 50.5943 116.473 51.0204C108.484 51.4997 97.8325 48.3575 89.2581 45.1621C89.0451 45.2154 88.8321 45.2154 88.619 45.2154C97.4065 48.7303 108.644 52.3511 117.697 52.4583C131.97 52.6714 126.112 43.7234 124.514 41.2743C123.657 40.0215 122.713 38.8293 121.692 37.7061C120.68 38.1854 119.615 38.6115 118.443 39.0908C119.135 39.8896 119.721 40.6352 120.254 41.4341ZM8.94633 19.0128C6.54976 15.2848 6.44324 10.3852 12.6211 9.79934C19.438 9.16025 28.3319 11.5568 35.7879 14.1664C36.001 14.1664 36.214 14.1132 36.427 14.1132C28.758 11.184 19.2775 8.3074 11.5027 8.41465C-1.3323 8.62768 3.72713 16.9891 5.11181 19.2791C5.67437 20.1296 6.26042 20.9643 6.8693 21.7822C7.87132 21.2823 8.88341 20.8029 9.90496 20.3443C9.58542 19.9182 9.26587 19.4389 8.94633 19.0128Z" fill="#33A457"/>
<path d="M39.9414 7.18972H41.5924V0H39.9414V7.18972Z" fill="#33A457"/>
<path fill-rule="evenodd" clip-rule="evenodd" d="M51.4456 1.27817V7.18972H49.7414V1.27817H46.4395V0H54.7476V1.27817H51.4456ZM62.0971 1.38469L63.6415 4.31383H60.4993L62.0971 1.38469ZM58.9549 7.18972L59.7537 5.592H64.3339L65.186 7.18972H67.05L62.9492 0H61.3515L57.2507 7.18972H58.9549ZM72.1627 7.18972V0H73.8136V5.80503H79.2459V7.18972H72.1627ZM84.6781 7.18972V3.94103L80.9501 0H83.1869L85.69 2.76937L88.1398 0H90.1103L86.3816 3.88777V7.18972H84.6781Z" fill="#33A457"/>
</svg>
