<svg width="130" height="53" viewBox="0 0 130 53" fill="none" xmlns="http://www.w3.org/2000/svg">
<path fill-rule="evenodd" clip-rule="evenodd" d="M9.96962 40.4673C25.1201 34.0149 45.8419 29.4206 66.6621 29.4206C87.4823 29.4206 106.639 33.233 121.692 39.6839L116.219 51.0234C101.165 44.5711 87.4823 42.4215 66.6628 42.4215C45.8434 42.4215 30.2032 45.9395 15.1512 52.3919L9.96962 40.4673ZM14.0757 26.6845C15.9323 31.474 15.8347 31.6686 11.9254 34.3086L12.4136 35.677C15.3465 34.5053 17.8873 33.8204 20.3313 32.8425C22.7752 31.8661 25.1208 31.1811 27.9553 30.008L27.4664 28.6395C22.7745 29.519 22.0903 28.9324 20.2329 24.1429L15.3457 11.7294C19.5487 10.0673 21.6013 11.1428 22.8721 12.9018L24.5335 12.1199L21.7966 5.8643L0 13.978L2.63923 20.4289L4.20295 19.6471C4.00767 17.4968 4.78953 15.933 8.89484 14.1733L14.0757 26.6845ZM34.1133 15.5417C33.1354 8.01534 35.6763 5.86505 37.9249 5.57139C40.8571 5.27847 44.2782 8.30826 45.3537 16.1276C46.3308 23.654 43.79 25.8043 41.5413 25.9996C38.6091 26.2932 35.1881 23.2634 34.1133 15.5417ZM26.9774 17.4968C28.0522 25.3161 34.3086 29.3245 40.9547 28.6395C48.7748 27.76 53.4659 21.7973 52.4888 14.1733C51.4133 6.25634 45.1577 2.34631 38.5115 3.03053C30.6922 3.81239 26.0003 9.87271 26.9774 17.4968ZM90.6083 13.5867C92.2711 6.15796 95.3009 4.88717 97.4519 5.47374C100.286 6.15796 102.338 10.1656 100.579 17.7897C98.8204 25.2184 95.7891 26.3909 93.6395 25.9027C90.805 25.2184 88.85 21.2108 90.6083 13.5867ZM83.3763 13.0001C81.6165 20.7218 85.9179 26.4892 92.1735 28.1506C99.6022 30.0072 105.956 25.9019 107.714 18.3763C109.474 10.6546 105.173 4.88717 98.9173 3.22581C91.4885 1.36843 85.136 5.47375 83.3763 13.0001ZM130 14.6622C129.218 14.0757 126.189 11.5341 123.451 10.5569C118.368 8.60192 113.774 10.4593 112.601 14.1733C110.059 21.6997 121.203 25.7074 119.248 30.1063C118.466 31.6693 116.706 32.0614 115.534 31.7677C113.969 31.4748 110.744 30.5945 110.06 24.535L108.203 24.1437C107.518 26.7836 107.617 25.8058 107.226 28.5419C109.377 31.2795 111.918 33.1361 114.361 34.0156C119.834 36.0683 124.429 34.9935 125.895 30.3993C128.339 23.1658 117.097 19.2565 119.249 14.5646C119.835 13.1962 121.105 12.5119 122.865 12.708C125.504 13.0985 127.068 15.4448 126.189 17.7904L128.046 18.4746L130 14.6622ZM78.6836 7.62404L78.5867 2.83451C75.7522 1.36843 72.1344 0.586578 68.91 0.586578C58.7444 0.684218 54.9327 8.11298 54.9327 13.978C55.0304 22.6776 62.6544 26.49 69.2037 26.49C72.6248 26.3916 75.1664 26.0003 78.3922 24.6326L78.1954 18.8652C78.0985 15.5417 78.782 16.0307 81.2252 15.1512L81.1283 13.6851L69.0084 13.5875L69.1053 15.3465C72.3311 15.5417 71.9398 16.6173 71.9398 19.9407V22.7752C71.9398 23.9484 71.7445 24.1437 70.4737 24.1437C65.0984 24.1437 62.5568 18.181 62.5568 13.1962C62.4591 5.47449 66.3692 2.93289 69.399 2.93289C74.3845 2.93289 76.4364 6.15871 76.7294 7.62478H78.6836V7.62404ZM111.135 10.1656C113.09 9.1885 114.947 7.33038 114.947 4.30059C115.046 1.66136 112.992 0 111.038 0H110.636C108.549 0.094681 107.438 1.63251 107.714 2.73687C108.203 5.96195 110.94 4.00767 111.233 6.45088C111.332 7.23274 111.038 8.01534 110.06 8.69956L111.135 10.1656Z" fill="#426F4F"/>
</svg>
